# MagicaVoxel @ Ephtracy

# group
o 

# material
mtllib laptop.mtl
usemtl palette

# normals
vn -1 0 0
vn 1 0 0
vn 0 0 1
vn 0 0 -1
vn 0 -1 0
vn 0 1 0

# texcoords
vt 0.978516 0.5
vt 0.990234 0.5
vt 0.994141 0.5

# verts
v -1.1 0 1.4
v -1.1 0 0.6
v -1.1 0.1 1.4
v -1.1 0.1 0.6
v -1.1 0.1 0.5
v -1.1 1.1 0.6
v -1.1 1.1 0.5
v -1 0.2 0.5
v -1 0.2 0.4
v -1 1 0.5
v -1 1 0.4
v 0.5 0.2 0.5
v 0.5 0.2 0.4
v 0.5 1 0.5
v 0.5 1 0.4
v 0.6 0 1.4
v 0.6 0 0.6
v 0.6 0.1 1.4
v 0.6 0.1 0.6
v 0.6 0.1 0.5
v 0.6 1.1 0.6
v 0.6 1.1 0.5
v -1.1 0 1.4
v -1.1 0.1 1.4
v 0.6 0 1.4
v 0.6 0.1 1.4
v -1.1 0.1 0.6
v -1.1 1.1 0.6
v -1 0.2 0.6
v -1 1 0.6
v -0.5 0.4 0.6
v -0.5 0.5 0.6
v -0.4 0.3 0.6
v -0.4 0.4 0.6
v -0.4 0.5 0.6
v -0.4 0.6 0.6
v -0.4 0.9 0.6
v -0.3 0.6 0.6
v -0.3 0.9 0.6
v -0.2 0.6 0.6
v -0.2 0.9 0.6
v -0.1 0.3 0.6
v -0.1 0.4 0.6
v -0.1 0.5 0.6
v -0.1 0.6 0.6
v -0.1 0.9 0.6
v 0 0.4 0.6
v 0 0.5 0.6
v 0.5 0.2 0.6
v 0.5 1 0.6
v 0.6 0.1 0.6
v 0.6 1.1 0.6
v -1.1 0 0.6
v -1.1 0.1 0.6
v 0.6 0 0.6
v 0.6 0.1 0.6
v -1.1 0.1 0.5
v -1.1 1.1 0.5
v -1 0.2 0.5
v -1 1 0.5
v 0.5 0.2 0.5
v 0.5 1 0.5
v 0.6 0.1 0.5
v 0.6 1.1 0.5
v -1 0.2 0.4
v -1 1 0.4
v 0.5 0.2 0.4
v 0.5 1 0.4
v -1.1 0 1.4
v 0.6 0 1.4
v -1 0 1.2
v -0.9 0 1.2
v -0.8 0 1.2
v -0.6 0 1.2
v -0.5 0 1.2
v -0.2 0 1.2
v -0.1 0 1.2
v 0 0 1.2
v 0.3 0 1.2
v 0.5 0 1.2
v -0.8 0 1.1
v -0.7 0 1.1
v -0.5 0 1.1
v -0.2 0 1.1
v -0.1 0 1.1
v 0 0 1.1
v 0.1 0 1.1
v 0.2 0 1.1
v 0.3 0 1.1
v 0.4 0 1.1
v -0.9 0 1
v -0.8 0 1
v -0.4 0 1
v -0.3 0 1
v -0.1 0 1
v 0 0 1
v 0.3 0 1
v 0.4 0 1
v 0.5 0 1
v -0.9 0 0.9
v -0.8 0 0.9
v -0.7 0 0.9
v -0.6 0 0.9
v -0.5 0 0.9
v -0.4 0 0.9
v -0.3 0 0.9
v -0.2 0 0.9
v -0.1 0 0.9
v 0 0 0.9
v 0.1 0 0.9
v 0.2 0 0.9
v 0.3 0 0.9
v 0.4 0 0.9
v 0.5 0 0.9
v -1 0 0.8
v -0.9 0 0.8
v -0.7 0 0.8
v -0.1 0 0.8
v 0.2 0 0.8
v 0.3 0 0.8
v 0.4 0 0.8
v -0.9 0 0.7
v -0.7 0 0.7
v -0.5 0 0.7
v -0.4 0 0.7
v -0.3 0 0.7
v -0.2 0 0.7
v -0.1 0 0.7
v 0.2 0 0.7
v 0.3 0 0.7
v 0.5 0 0.7
v -1.1 0 0.6
v 0.6 0 0.6
v -1.1 0.1 0.6
v 0.6 0.1 0.6
v -1.1 0.1 0.5
v 0.6 0.1 0.5
v -1 0.2 0.5
v 0.5 0.2 0.5
v -1 0.2 0.4
v 0.5 0.2 0.4
v -1.1 0.1 1.4
v 0.6 0.1 1.4
v -1 0.1 1.2
v -0.9 0.1 1.2
v -0.8 0.1 1.2
v -0.6 0.1 1.2
v -0.5 0.1 1.2
v -0.2 0.1 1.2
v -0.1 0.1 1.2
v 0 0.1 1.2
v 0.3 0.1 1.2
v 0.5 0.1 1.2
v -0.8 0.1 1.1
v -0.7 0.1 1.1
v -0.5 0.1 1.1
v -0.2 0.1 1.1
v -0.1 0.1 1.1
v 0 0.1 1.1
v 0.1 0.1 1.1
v 0.2 0.1 1.1
v 0.3 0.1 1.1
v 0.4 0.1 1.1
v -0.9 0.1 1
v -0.8 0.1 1
v -0.4 0.1 1
v -0.3 0.1 1
v -0.1 0.1 1
v 0 0.1 1
v 0.3 0.1 1
v 0.4 0.1 1
v 0.5 0.1 1
v -0.9 0.1 0.9
v -0.8 0.1 0.9
v -0.7 0.1 0.9
v -0.6 0.1 0.9
v -0.5 0.1 0.9
v -0.4 0.1 0.9
v -0.3 0.1 0.9
v -0.2 0.1 0.9
v -0.1 0.1 0.9
v 0 0.1 0.9
v 0.1 0.1 0.9
v 0.2 0.1 0.9
v 0.3 0.1 0.9
v 0.4 0.1 0.9
v 0.5 0.1 0.9
v -1 0.1 0.8
v -0.9 0.1 0.8
v -0.7 0.1 0.8
v -0.1 0.1 0.8
v 0.2 0.1 0.8
v 0.3 0.1 0.8
v 0.4 0.1 0.8
v -0.9 0.1 0.7
v -0.7 0.1 0.7
v -0.5 0.1 0.7
v -0.4 0.1 0.7
v -0.3 0.1 0.7
v -0.2 0.1 0.7
v -0.1 0.1 0.7
v 0.2 0.1 0.7
v 0.3 0.1 0.7
v 0.5 0.1 0.7
v -1.1 0.1 0.6
v 0.6 0.1 0.6
v -1 1 0.5
v 0.5 1 0.5
v -1 1 0.4
v 0.5 1 0.4
v -1.1 1.1 0.6
v 0.6 1.1 0.6
v -1.1 1.1 0.5
v 0.6 1.1 0.5

# faces
f 3/3/1 2/3/1 1/3/1
f 4/3/1 2/3/1 3/3/1
f 6/3/1 5/3/1 4/3/1
f 7/3/1 5/3/1 6/3/1
f 10/3/1 9/3/1 8/3/1
f 11/3/1 9/3/1 10/3/1
f 12/3/2 13/3/2 14/3/2
f 14/3/2 13/3/2 15/3/2
f 16/3/2 17/3/2 18/3/2
f 18/3/2 17/3/2 19/3/2
f 19/3/2 20/3/2 21/3/2
f 21/3/2 20/3/2 22/3/2
f 25/3/3 24/3/3 23/3/3
f 26/3/3 24/3/3 25/3/3
f 29/3/3 28/3/3 27/3/3
f 30/3/3 28/3/3 29/3/3
f 31/2/3 30/2/3 29/2/3
f 32/2/3 30/2/3 31/2/3
f 33/2/3 31/2/3 29/2/3
f 34/1/3 32/1/3 31/1/3
f 34/2/3 31/2/3 33/2/3
f 35/2/3 30/2/3 32/2/3
f 35/1/3 32/1/3 34/1/3
f 36/2/3 30/2/3 35/2/3
f 37/2/3 30/2/3 36/2/3
f 38/2/3 35/2/3 34/2/3
f 38/2/3 36/2/3 35/2/3
f 38/1/3 37/1/3 36/1/3
f 39/2/3 30/2/3 37/2/3
f 39/1/3 37/1/3 38/1/3
f 40/2/3 38/2/3 34/2/3
f 40/2/3 39/2/3 38/2/3
f 41/2/3 30/2/3 39/2/3
f 41/2/3 39/2/3 40/2/3
f 42/1/3 34/1/3 33/1/3
f 42/2/3 33/2/3 29/2/3
f 43/2/3 40/2/3 34/2/3
f 43/1/3 34/1/3 42/1/3
f 44/2/3 40/2/3 43/2/3
f 45/1/3 41/1/3 40/1/3
f 45/2/3 40/2/3 44/2/3
f 46/2/3 30/2/3 41/2/3
f 46/1/3 41/1/3 45/1/3
f 47/1/3 44/1/3 43/1/3
f 47/2/3 43/2/3 42/2/3
f 48/2/3 45/2/3 44/2/3
f 48/1/3 44/1/3 47/1/3
f 48/2/3 46/2/3 45/2/3
f 49/3/3 29/3/3 27/3/3
f 49/2/3 47/2/3 42/2/3
f 49/2/3 48/2/3 47/2/3
f 49/2/3 42/2/3 29/2/3
f 50/2/3 46/2/3 48/2/3
f 50/2/3 48/2/3 49/2/3
f 50/3/3 28/3/3 30/3/3
f 50/2/3 30/2/3 46/2/3
f 51/3/3 49/3/3 27/3/3
f 51/3/3 50/3/3 49/3/3
f 52/3/3 28/3/3 50/3/3
f 52/3/3 50/3/3 51/3/3
f 53/3/4 54/3/4 55/3/4
f 55/3/4 54/3/4 56/3/4
f 57/3/4 58/3/4 59/3/4
f 59/3/4 58/3/4 60/3/4
f 57/3/4 59/3/4 61/3/4
f 60/3/4 58/3/4 62/3/4
f 57/3/4 61/3/4 63/3/4
f 61/3/4 62/3/4 63/3/4
f 62/3/4 58/3/4 64/3/4
f 63/3/4 62/3/4 64/3/4
f 65/3/4 66/3/4 67/3/4
f 67/3/4 66/3/4 68/3/4
f 71/3/5 70/3/5 69/3/5
f 72/3/5 70/3/5 71/3/5
f 73/3/5 70/3/5 72/3/5
f 74/3/5 70/3/5 73/3/5
f 75/3/5 70/3/5 74/3/5
f 76/3/5 70/3/5 75/3/5
f 77/3/5 70/3/5 76/3/5
f 78/3/5 70/3/5 77/3/5
f 79/3/5 70/3/5 78/3/5
f 80/3/5 70/3/5 79/3/5
f 81/3/5 73/3/5 72/3/5
f 81/2/5 74/2/5 73/2/5
f 82/2/5 74/2/5 81/2/5
f 83/3/5 75/3/5 74/3/5
f 83/2/5 76/2/5 75/2/5
f 84/3/5 77/3/5 76/3/5
f 84/2/5 76/2/5 83/2/5
f 85/2/5 78/2/5 77/2/5
f 85/3/5 77/3/5 84/3/5
f 86/3/5 79/3/5 78/3/5
f 86/2/5 78/2/5 85/2/5
f 87/3/5 79/3/5 86/3/5
f 88/3/5 79/3/5 87/3/5
f 89/2/5 80/2/5 79/2/5
f 89/3/5 79/3/5 88/3/5
f 90/2/5 80/2/5 89/2/5
f 91/2/5 72/2/5 71/2/5
f 91/3/5 82/3/5 81/3/5
f 91/3/5 81/3/5 72/3/5
f 92/3/5 82/3/5 91/3/5
f 93/3/5 84/3/5 83/3/5
f 93/3/5 85/3/5 84/3/5
f 93/3/5 86/3/5 85/3/5
f 93/3/5 87/3/5 86/3/5
f 94/3/5 87/3/5 93/3/5
f 95/3/5 87/3/5 94/3/5
f 96/3/5 87/3/5 95/3/5
f 97/3/5 90/3/5 89/3/5
f 97/3/5 89/3/5 88/3/5
f 98/2/5 80/2/5 90/2/5
f 98/3/5 90/3/5 97/3/5
f 99/3/5 70/3/5 80/3/5
f 99/2/5 80/2/5 98/2/5
f 100/2/5 92/2/5 91/2/5
f 100/2/5 91/2/5 71/2/5
f 101/3/5 82/3/5 92/3/5
f 101/2/5 92/2/5 100/2/5
f 102/2/5 74/2/5 82/2/5
f 102/3/5 82/3/5 101/3/5
f 103/3/5 83/3/5 74/3/5
f 103/2/5 74/2/5 102/2/5
f 103/3/5 93/3/5 83/3/5
f 104/3/5 93/3/5 103/3/5
f 105/2/5 94/2/5 93/2/5
f 105/3/5 93/3/5 104/3/5
f 106/3/5 95/3/5 94/3/5
f 106/2/5 94/2/5 105/2/5
f 107/3/5 95/3/5 106/3/5
f 108/2/5 96/2/5 95/2/5
f 108/3/5 95/3/5 107/3/5
f 109/3/5 87/3/5 96/3/5
f 109/2/5 96/2/5 108/2/5
f 110/2/5 88/2/5 87/2/5
f 110/3/5 87/3/5 109/3/5
f 111/3/5 97/3/5 88/3/5
f 111/2/5 88/2/5 110/2/5
f 112/2/5 98/2/5 97/2/5
f 112/3/5 97/3/5 111/3/5
f 113/3/5 99/3/5 98/3/5
f 113/2/5 98/2/5 112/2/5
f 114/3/5 70/3/5 99/3/5
f 114/3/5 99/3/5 113/3/5
f 115/3/5 71/3/5 69/3/5
f 115/2/5 100/2/5 71/2/5
f 116/3/5 101/3/5 100/3/5
f 116/2/5 100/2/5 115/2/5
f 116/3/5 102/3/5 101/3/5
f 116/3/5 104/3/5 103/3/5
f 116/3/5 103/3/5 102/3/5
f 117/3/5 104/3/5 116/3/5
f 118/3/5 110/3/5 109/3/5
f 118/3/5 111/3/5 110/3/5
f 118/3/5 109/3/5 108/3/5
f 118/3/5 108/3/5 107/3/5
f 118/3/5 113/3/5 112/3/5
f 118/3/5 112/3/5 111/3/5
f 119/3/5 113/3/5 118/3/5
f 120/3/5 113/3/5 119/3/5
f 121/2/5 114/2/5 113/2/5
f 121/3/5 113/3/5 120/3/5
f 122/2/5 117/2/5 116/2/5
f 122/3/5 116/3/5 115/3/5
f 123/3/5 104/3/5 117/3/5
f 123/2/5 117/2/5 122/2/5
f 124/2/5 105/2/5 104/2/5
f 124/3/5 104/3/5 123/3/5
f 125/3/5 106/3/5 105/3/5
f 125/2/5 105/2/5 124/2/5
f 126/2/5 107/2/5 106/2/5
f 126/3/5 106/3/5 125/3/5
f 127/3/5 118/3/5 107/3/5
f 127/2/5 107/2/5 126/2/5
f 128/2/5 119/2/5 118/2/5
f 128/3/5 118/3/5 127/3/5
f 129/3/5 120/3/5 119/3/5
f 129/2/5 119/2/5 128/2/5
f 130/2/5 121/2/5 120/2/5
f 130/3/5 120/3/5 129/3/5
f 131/3/5 70/3/5 114/3/5
f 131/2/5 121/2/5 130/2/5
f 131/2/5 114/2/5 121/2/5
f 132/3/5 130/3/5 129/3/5
f 132/3/5 122/3/5 115/3/5
f 132/3/5 131/3/5 130/3/5
f 132/3/5 126/3/5 125/3/5
f 132/3/5 125/3/5 124/3/5
f 132/3/5 128/3/5 127/3/5
f 132/3/5 124/3/5 123/3/5
f 132/3/5 123/3/5 122/3/5
f 132/3/5 115/3/5 69/3/5
f 132/3/5 129/3/5 128/3/5
f 132/3/5 127/3/5 126/3/5
f 133/3/5 70/3/5 131/3/5
f 133/3/5 131/3/5 132/3/5
f 136/3/5 135/3/5 134/3/5
f 137/3/5 135/3/5 136/3/5
f 140/3/5 139/3/5 138/3/5
f 141/3/5 139/3/5 140/3/5
f 142/3/6 143/3/6 144/3/6
f 144/3/6 143/3/6 145/3/6
f 145/3/6 143/3/6 146/3/6
f 146/3/6 143/3/6 147/3/6
f 147/3/6 143/3/6 148/3/6
f 148/3/6 143/3/6 149/3/6
f 149/3/6 143/3/6 150/3/6
f 150/3/6 143/3/6 151/3/6
f 151/3/6 143/3/6 152/3/6
f 152/3/6 143/3/6 153/3/6
f 145/3/6 146/3/6 154/3/6
f 146/2/6 147/2/6 154/2/6
f 154/2/6 147/2/6 155/2/6
f 147/3/6 148/3/6 156/3/6
f 148/2/6 149/2/6 156/2/6
f 149/3/6 150/3/6 157/3/6
f 156/2/6 149/2/6 157/2/6
f 150/2/6 151/2/6 158/2/6
f 157/3/6 150/3/6 158/3/6
f 151/3/6 152/3/6 159/3/6
f 158/2/6 151/2/6 159/2/6
f 159/3/6 152/3/6 160/3/6
f 160/3/6 152/3/6 161/3/6
f 152/2/6 153/2/6 162/2/6
f 161/3/6 152/3/6 162/3/6
f 162/2/6 153/2/6 163/2/6
f 144/2/6 145/2/6 164/2/6
f 154/3/6 155/3/6 164/3/6
f 145/3/6 154/3/6 164/3/6
f 164/3/6 155/3/6 165/3/6
f 156/3/6 157/3/6 166/3/6
f 157/3/6 158/3/6 166/3/6
f 158/3/6 159/3/6 166/3/6
f 159/3/6 160/3/6 166/3/6
f 166/3/6 160/3/6 167/3/6
f 167/3/6 160/3/6 168/3/6
f 168/3/6 160/3/6 169/3/6
f 162/3/6 163/3/6 170/3/6
f 161/3/6 162/3/6 170/3/6
f 163/2/6 153/2/6 171/2/6
f 170/3/6 163/3/6 171/3/6
f 153/3/6 143/3/6 172/3/6
f 171/2/6 153/2/6 172/2/6
f 164/2/6 165/2/6 173/2/6
f 144/2/6 164/2/6 173/2/6
f 165/3/6 155/3/6 174/3/6
f 173/2/6 165/2/6 174/2/6
f 155/2/6 147/2/6 175/2/6
f 174/3/6 155/3/6 175/3/6
f 147/3/6 156/3/6 176/3/6
f 175/2/6 147/2/6 176/2/6
f 156/3/6 166/3/6 176/3/6
f 176/3/6 166/3/6 177/3/6
f 166/2/6 167/2/6 178/2/6
f 177/3/6 166/3/6 178/3/6
f 167/3/6 168/3/6 179/3/6
f 178/2/6 167/2/6 179/2/6
f 179/3/6 168/3/6 180/3/6
f 168/2/6 169/2/6 181/2/6
f 180/3/6 168/3/6 181/3/6
f 169/3/6 160/3/6 182/3/6
f 181/2/6 169/2/6 182/2/6
f 160/2/6 161/2/6 183/2/6
f 182/3/6 160/3/6 183/3/6
f 161/3/6 170/3/6 184/3/6
f 183/2/6 161/2/6 184/2/6
f 170/2/6 171/2/6 185/2/6
f 184/3/6 170/3/6 185/3/6
f 171/3/6 172/3/6 186/3/6
f 185/2/6 171/2/6 186/2/6
f 172/3/6 143/3/6 187/3/6
f 186/3/6 172/3/6 187/3/6
f 142/3/6 144/3/6 188/3/6
f 144/2/6 173/2/6 188/2/6
f 173/3/6 174/3/6 189/3/6
f 188/2/6 173/2/6 189/2/6
f 174/3/6 175/3/6 189/3/6
f 176/3/6 177/3/6 189/3/6
f 175/3/6 176/3/6 189/3/6
f 189/3/6 177/3/6 190/3/6
f 182/3/6 183/3/6 191/3/6
f 183/3/6 184/3/6 191/3/6
f 181/3/6 182/3/6 191/3/6
f 180/3/6 181/3/6 191/3/6
f 185/3/6 186/3/6 191/3/6
f 184/3/6 185/3/6 191/3/6
f 191/3/6 186/3/6 192/3/6
f 192/3/6 186/3/6 193/3/6
f 186/2/6 187/2/6 194/2/6
f 193/3/6 186/3/6 194/3/6
f 189/2/6 190/2/6 195/2/6
f 188/3/6 189/3/6 195/3/6
f 190/3/6 177/3/6 196/3/6
f 195/2/6 190/2/6 196/2/6
f 177/2/6 178/2/6 197/2/6
f 196/3/6 177/3/6 197/3/6
f 178/3/6 179/3/6 198/3/6
f 197/2/6 178/2/6 198/2/6
f 179/2/6 180/2/6 199/2/6
f 198/3/6 179/3/6 199/3/6
f 180/3/6 191/3/6 200/3/6
f 199/2/6 180/2/6 200/2/6
f 191/2/6 192/2/6 201/2/6
f 200/3/6 191/3/6 201/3/6
f 192/3/6 193/3/6 202/3/6
f 201/2/6 192/2/6 202/2/6
f 193/2/6 194/2/6 203/2/6
f 202/3/6 193/3/6 203/3/6
f 187/3/6 143/3/6 204/3/6
f 203/2/6 194/2/6 204/2/6
f 194/2/6 187/2/6 204/2/6
f 202/3/6 203/3/6 205/3/6
f 188/3/6 195/3/6 205/3/6
f 203/3/6 204/3/6 205/3/6
f 198/3/6 199/3/6 205/3/6
f 197/3/6 198/3/6 205/3/6
f 200/3/6 201/3/6 205/3/6
f 196/3/6 197/3/6 205/3/6
f 195/3/6 196/3/6 205/3/6
f 142/3/6 188/3/6 205/3/6
f 201/3/6 202/3/6 205/3/6
f 199/3/6 200/3/6 205/3/6
f 204/3/6 143/3/6 206/3/6
f 205/3/6 204/3/6 206/3/6
f 207/3/6 208/3/6 209/3/6
f 209/3/6 208/3/6 210/3/6
f 211/3/6 212/3/6 213/3/6
f 213/3/6 212/3/6 214/3/6
